# xmcd
#
# Track frame offsets: 
#        150
#        21295
#        45745
#        66380
#        88095
#        111974
#        132694
#        165582
#        193569
#
# Disc length: 2771 seconds
#
# Revision: 0
# Processed by: cddbd v1.5.2PL0 Copyright (c) Steve Scherf et al.
# Submitted via: ExactAudioCopy v0.99pb3
#
DISCID=810ad109
DTITLE=Tom Principato - Raising The Roof
DYEAR=2008
DGENRE=Blues
TTITLE0=Lock And Key
TTITLE1=Too Damn Funky
TTITLE2=In The Middle Of The Night
TTITLE3=Lies
TTITLE4=Bo Bo's Groove
TTITLE5=Fish Fry
TTITLE6=Mi Solea
TTITLE7=8 Counts For Rita
TTITLE8=They Called For Stormy Monday (But Mustang Sally Is Just As Ba
TTITLE8=d)
EXTD=
EXTT0=
EXTT1=
EXTT2=
EXTT3=
EXTT4=
EXTT5=
EXTT6=
EXTT7=
EXTT8=
PLAYORDER=
